<svg preserveAspectRatio="none" width="100%" height="100%" overflow="visible" style="display: block;" viewBox="0 0 22 22" fill="none" xmlns="http://www.w3.org/2000/svg">
<path id="Exclude" d="M11 0C17.0751 0 22 4.92487 22 11C22 17.0751 17.0751 22 11 22C4.92487 22 0 17.0751 0 11C0 4.92487 4.92487 0 11 0ZM8.27051 6.02637C8.2159 5.99235 8.14615 5.99048 8.08984 6.02441C8.03513 6.05766 8 6.12122 8 6.18945V15.8105C8.00013 15.8795 8.03517 15.9414 8.08984 15.9746C8.14623 16.0095 8.21585 16.0076 8.27051 15.9727L15.9131 11.1621C15.9678 11.1289 16 11.0663 16 10.999C15.9999 10.9337 15.9676 10.8711 15.9131 10.8379L8.27051 6.02637Z" fill="var(--fill-0, white)"/>
</svg>
