<svg preserveAspectRatio="none" width="100%" height="100%" overflow="visible" style="display: block;" viewBox="0 0 40 40" fill="none" xmlns="http://www.w3.org/2000/svg">
<g id="container icon location">
<path id="location" fill-rule="evenodd" clip-rule="evenodd" d="M20 13.4375C18.4811 13.4375 17.25 14.6966 17.25 16.25C17.25 17.8034 18.4811 19.0625 20 19.0625C21.5189 19.0625 22.75 17.8034 22.75 16.25C22.75 14.6966 21.5189 13.4375 20 13.4375ZM20 20.9375C17.4691 20.9375 15.4167 18.8394 15.4167 16.25C15.4167 13.6606 17.4691 11.5625 20 11.5625C22.5309 11.5625 24.5833 13.6606 24.5833 16.25C24.5833 18.8394 22.5309 20.9375 20 20.9375ZM20 5C13.9253 5 9 10.0372 9 16.25C9 20.9544 18.1713 35.0103 20 35C21.8003 35.0103 31 20.8906 31 16.25C31 10.0372 26.0748 5 20 5Z" fill="var(--fill-0, #617A7D)"/>
</g>
</svg>
