<svg preserveAspectRatio="none" width="100%" height="100%" overflow="visible" style="display: block;" viewBox="0 0 40 40" fill="none" xmlns="http://www.w3.org/2000/svg">
<g id="container icon location">
<path id="Vector" d="M14.1656 6.05409C14.1656 6.05409 13.7127 5 13.0212 5C12.3406 5 11.9866 5.31227 11.7506 5.52773C11.5145 5.74318 7.56547 8.96818 7.56547 8.96818C7.56547 8.96818 6.41697 9.965 6.50479 11.84C6.57889 13.715 6.948 16.3836 8.86353 20.1009C10.7653 23.81 15.5254 29.4773 18.5331 31.4695C18.5331 31.4695 21.32 33.5941 23.9134 34.4573C24.6667 34.6932 26.1733 35 26.5246 35C26.8814 35 27.5112 35 28.2343 34.475C28.9698 33.9445 33.0959 30.6473 33.0959 30.6473C33.0959 30.6473 34.1058 29.7405 32.9326 28.6864C31.7539 27.6323 28.1753 25.2882 27.4097 24.6718C26.6426 24.0459 25.5504 24.3214 25.0784 24.7455C24.6077 25.1723 23.7666 25.8745 23.6637 25.9632C23.51 26.0805 23.0887 26.4609 22.6167 26.2714C22.0157 26.0355 19.5513 24.7059 17.2666 21.5995C14.9957 18.4959 14.746 17.4814 14.4071 16.385C14.3496 16.2229 14.3488 16.0463 14.4048 15.8837C14.4608 15.7212 14.5704 15.5821 14.7158 15.4891C15.0561 15.2545 16.3089 14.2168 16.3089 14.2168C16.3089 14.2168 17.1198 13.4218 16.7809 12.485C16.442 11.5482 14.1656 6.05409 14.1656 6.05409Z" fill="var(--fill-0, #617A7D)"/>
</g>
</svg>
